<svg width="18" height="16" xmlns="http://www.w3.org/2000/svg">
  <g fill="none">
    <path d="M-3-5h24v24H-3z"/>
    <path d="M15.92 1.01C15.72.42 15.16 0 14.5 0h-11c-.66 0-1.21.42-1.42 1.01L.11 6.68c-.07.21-.11.43-.11.66v7.16c0 .83.67 1.5 1.5 1.5S3 15.33 3 14.5V14h12v.5c0 .82.67 1.5 1.5 1.5.82 0 1.5-.67 1.5-1.5V7.34c0-.22-.04-.45-.11-.66l-1.97-5.67zM3.5 11C2.67 11 2 10.33 2 9.5S2.67 8 3.5 8 5 8.67 5 9.5 4.33 11 3.5 11zm11 0c-.83 0-1.5-.67-1.5-1.5S13.67 8 14.5 8s1.5.67 1.5 1.5-.67 1.5-1.5 1.5zM2 6l1.27-3.82c.14-.4.52-.68.95-.68h9.56c.43 0 .81.28.95.68L16 6H2z" fill="#1D1D1D"/>
  </g>
</svg>


<!--Generator: Adobe Illustrator 23.0.3, SVG Export Plug-In . SVG Version: 6.00 Build 0)-->
<svg xmlns="http://www.w3.org/2000/svg" viewBox="0 0 32 32">
  <path d="M28 13h1c.6 0 1-.4 1-1s-.4-1-1-1h-2.8L25 8c-.8-1.8-2.6-3-4.6-3h-8.7C9.6 5 7.8 6.2 7 8l-1.3 3H3c-.6 0-1 .4-1 1s.4 1 1 1h1c-1.2.9-2 2.4-2 4v4c0 .9.4 1.7 1 2.2V25c0 1.7 1.3 3 3 3h2c1.7 0 3-1.3 3-3v-1h10v1c0 1.7 1.3 3 3 3h2c1.7 0 3-1.3 3-3v-1.8c.6-.5 1-1.3 1-2.2v-4c0-1.6-.8-3.1-2-4zm-1 5c0 .6-.4 1-1 1h-3c-.6 0-1-.4-1-1s.4-1 1-1h3c.6 0 1 .4 1 1zM6 17h3c.6 0 1 .4 1 1s-.4 1-1 1H6c-.6 0-1-.4-1-1s.4-1 1-1zm4.4 5l1.2-2.3c.5-1 1.5-1.7 2.7-1.7h3.5c1.1 0 2.2.6 2.7 1.7l1.2 2.3H10.4zM8.9 8.8C9.4 7.7 10.4 7 11.6 7h8.7c1.2 0 2.3.7 2.8 1.8l1.4 3.2h-17l1.4-3.2z"/>
</svg>